#!OML:ASF I:\Actors\actors\Patient Classification 2\Patient 1\Session 1\actor1.ASF
:FULLY-SPECIFIED
:DEGREES
195
root -1.07315 17.3414 5.59543 17.008 0.727934 -0.0274918
lowerback 22.9366 -2.09938 14.7545
upperback -0.675113 1.98236 5.27677
thorax -13.5449 0.110146 -2.95883
lowerneck -17.6254 0.57376 2.77593
upperneck 16.1938 1.20888 -5.84334
head 7.9673 0.155696 -2.26167
rclavicle 3.65764e-014 -3.33958e-014
rhumerus -74.1308 32.0757 -69.6322
rradius 113.348
rwrist -16.7771
rhand 31.6609 -48.4252
rfingers 7.12502
rthumb 55.1936 -66.4229
lclavicle 3.65764e-014 -3.33958e-014
lhumerus -65.8202 -22.1748 89.7462
lradius 89.4129
lwrist 2.78454
lhand 20.7335 -28.4448
lfingers 7.12502
lthumb 45.2178 -5.03154
rfemur -38.1772 -11.0471 16.8837
rtibia 53.9627
rfoot -28.4188 4.36217
rtoes -20.7626
lfemur -43.3413 13.6681 -14.7444
ltibia 56.6033
lfoot -24.4708 -7.0036
ltoes -56.3989
196
root -1.0486 17.3509 5.61696 16.8549 0.335032 -0.319552
lowerback 22.7732 -2.14847 14.2902
upperback -0.720477 1.71486 4.91786
thorax -13.5395 0.00368519 -3.02985
lowerneck -17.5083 0.726134 3.01455
upperneck 16.5687 1.27147 -5.34013
head 8.07147 0.249869 -2.12894
rclavicle -1.27222e-014 4.6118e-014
rhumerus -73.7276 35.3999 -68.11
rradius 114.622
rwrist -18.201
rhand 32.9185 -49.6685
rfingers 7.12502
rthumb 56.3099 -66.8153
lclavicle -1.27222e-014 4.6118e-014
lhumerus -66.7981 -24.011 89.858
lradius 89.1142
lwrist 3.51453
lhand 27.5173 -27.1807
lfingers 7.12502
lthumb 51.4617 -6.76067
rfemur -37.8369 -10.8388 17.0069
rtibia 53.6616
rfoot -28.2198 4.65848
rtoes -20.4113
lfemur -42.984 14.0473 -14.5418
ltibia 56.6244
lfoot -24.6625 -6.95119
ltoes -56.2881
197
root -1.02482 17.3614 5.63753 16.6152 0.0103578 -0.580663
lowerback 22.6772 -2.20423 13.8383
upperback -0.768303 1.45984 4.57733
thorax -13.574 -0.0995588 -3.08881
lowerneck -17.3475 0.83939 3.37376
upperneck 16.9583 1.30408 -5.11457
head 8.17483 0.311136 -2.11273
rclavicle 1.59028e-015 -4.77083e-015
rhumerus -73.0267 38.534 -66.0647
rradius 115.833
rwrist -19.5616
rhand 33.3776 -50.4168
rfingers 7.12502
rthumb 56.7153 -67.2376
lclavicle 1.59028e-015 -4.77083e-015
lhumerus -68.0354 -25.9446 90.2194
lradius 89.1525
lwrist 5.27348
lhand 32.7148 -23.8441
lfingers 7.12502
lthumb 56.1297 -6.55537
rfemur -37.3675 -10.6669 17.1004
rtibia 53.3179
rfoot -28.0353 4.79502
rtoes -20.6556
lfemur -42.5079 14.3299 -14.3253
ltibia 56.5903
lfoot -24.8498 -6.90577
ltoes -56.2309
198
root -1.00153 17.3715 5.65569 16.3563 -0.279588 -0.866345
lowerback 22.6186 -2.25701 13.4248
upperback -0.812377 1.2291 4.2579
thorax -13.6218 -0.194105 -3.15131
lowerneck -17.3822 0.911356 3.72379
upperneck 17.487 1.27946 -4.88513
head 8.35747 0.343644 -2.10277
rclavicle 3.18055e-015 -3.65764e-014
rhumerus -71.9141 41.4215 -63.5043
rradius 116.901
rwrist -20.6717
rhand 33.6123 -50.6849
rfingers 7.12502
rthumb 56.922 -67.3357
lclavicle 3.18055e-015 -3.65764e-014
lhumerus -69.5001 -27.8335 90.6505
lradius 89.5231
lwrist 7.91778
lhand 35.9089 -18.9435
lfingers 7.12502
lthumb 58.9261 -4.08317
rfemur -36.8695 -10.4787 17.23
rtibia 52.9499
rfoot -27.8373 4.82073
rtoes -21.1485
lfemur -42.0058 14.5079 -14.0548
ltibia 56.5189
lfoot -24.9949 -6.70812
ltoes -56.3794
199
root -0.97833 17.3831 5.67323 16.0689 -0.609981 -1.12707
lowerback 22.5659 -2.27234 12.9743
upperback -0.802697 1.03125 3.93117
thorax -13.6027 -0.266199 -3.21365
lowerneck -17.5763 0.908818 3.99147
upperneck 17.9991 1.14294 -4.55408
head 8.55788 0.329037 -2.05848
rclavicle -7.95139e-015 3.49861e-014
rhumerus -70.2054 43.9934 -60.3869
rradius 117.681
rwrist -21.551
rhand 33.7782 -50.199
rfingers 7.12502
rthumb 57.0679 -66.7283
lclavicle -7.95139e-015 3.49861e-014
lhumerus -70.7762 -29.4652 90.5442
lradius 90.3624
lwrist 8.68618
lhand 38.3509 -14.0908
lfingers 7.12502
lthumb 61.0146 -1.4217
rfemur -36.3374 -10.2731 17.3161
rtibia 52.5699
rfoot -27.6117 4.93782
rtoes -21.1504
lfemur -41.4533 14.6442 -13.8063
ltibia 56.4148
lfoot -25.1105 -6.34161
ltoes -56.6325
200
root -0.954865 17.3964 5.68716 15.7811 -0.940837 -1.31189
lowerback 22.5333 -2.26037 12.5113
upperback -0.779255 0.863057 3.56373
thorax -13.573 -0.32516 -3.3251
lowerneck -17.7394 0.862814 4.04473
upperneck 18.3974 0.947468 -3.99261
head 8.71094 0.299296 -1.90562
rclavicle -2.38542e-015 4.13472e-014
rhumerus -67.8973 46.1739 -56.6668
rradius 118.276
rwrist -22.4681
rhand 33.9689 -49.7378
rfingers 7.12502
rthumb 57.2354 -66.126
lclavicle -2.38542e-015 4.13472e-014
lhumerus -72.3927 -31.26 90.7026
lradius 91.2092
lwrist 10.9714
lhand 37.3781 -10.4475
lfingers 7.12502
lthumb 60.1885 3.13336
rfemur -35.8165 -10.1351 17.3214
rtibia 52.1777
rfoot -27.3421 5.16472
rtoes -20.7437
lfemur -40.9031 14.7518 -13.6424
ltibia 56.2737
lfoot -25.1982 -5.97027
ltoes -56.7778
201
root -0.937534 17.4129 5.70189 15.4907 -1.18827 -1.4862
lowerback 22.4416 -2.23998 12.0602
upperback -0.744347 0.699681 3.19901
thorax -13.4953 -0.379886 -3.44091
lowerneck -17.7849 0.803779 4.00731
upperneck 18.6809 0.737046 -3.34323
head 8.80462 0.268436 -1.70737
rclavicle -5.56597e-015 6.83819e-014
rhumerus -65.0838 47.9527 -52.4311
rradius 118.744
rwrist -23.3203
rhand 34.2876 -49.5718
rfingers 7.12502
rthumb 57.5149 -65.7206
lclavicle -5.56597e-015 6.83819e-014
lhumerus -73.7341 -33.0321 90.1669
lradius 92.5173
lwrist 11.0588
lhand 36.5744 -8.58894
lfingers 7.12502
lthumb 59.5 5.70572
rfemur -35.2558 -10.05 17.3585
rtibia 51.766
rfoot -27.1028 5.34715
rtoes -20.4574
lfemur -40.3332 14.8768 -13.4503
ltibia 56.0934
lfoot -25.2633 -5.80523
ltoes -56.8014
202
root -0.927576 17.4307 5.72141 15.1554 -1.43074 -1.67944
lowerback 22.2711 -2.17409 11.5543
upperback -0.673034 0.574754 2.88727
thorax -13.3244 -0.405468 -3.47812
lowerneck -17.8541 0.718664 3.88285
upperneck 19.0268 0.524627 -2.75421
head 8.92594 0.225322 -1.51579
rclavicle 1.59028e-015 3.02153e-014
rhumerus -61.828 49.3782 -47.7442
rradius 119.064
rwrist -23.9893
rhand 34.6283 -49.5837
rfingers 7.12502
rthumb 57.8129 -65.4718
lclavicle 1.59028e-015 3.02153e-014
lhumerus -74.7943 -34.8595 89.2251
lradius 94.0711
lwrist 11.5775
lhand 35.2533 -7.8702
lfingers 7.12502
lthumb 58.3577 7.5259
rfemur -34.6036 -9.91147 17.4352
rtibia 51.3399
rfoot -26.9386 5.42048
rtoes -20.5858
lfemur -39.6613 15.0665 -13.1865
ltibia 55.89
lfoot -25.3315 -5.80186
ltoes -56.7354
203
root -0.912252 17.4459 5.73315 14.8144 -1.71945 -1.87108
lowerback 22.2437 -2.08529 11.0958
upperback -0.651441 0.523575 2.59073
thorax -13.2845 -0.408669 -3.54529
lowerneck -18.0246 0.62846 3.71872
upperneck 19.5443 0.341052 -2.30118
head 9.1281 0.179702 -1.36173
rclavicle -9.14409e-015 -6.36111e-015
rhumerus -58.1093 50.5025 -42.6206
rradius 119.252
rwrist -24.7815
rhand 34.9392 -49.7342
rfingers 7.12502
rthumb 58.0842 -65.3798
lclavicle -9.14409e-015 -6.36111e-015
lhumerus -75.4593 -36.701 87.7271
lradius 95.8048
lwrist 12.6632
lhand 34.2232 -8.49449
lfingers 7.12502
lthumb 57.4584 7.70312
rfemur -33.9984 -9.74672 17.4887
rtibia 50.9006
rfoot -26.7163 5.46702
rtoes -20.7501
lfemur -39.0177 15.2396 -12.9484
ltibia 55.6886
lfoot -25.3749 -5.73663
ltoes -56.6606
204
root -0.891816 17.4591 5.73425 14.4452 -1.99919 -2.07861
lowerback 22.4261 -1.99089 10.7188
upperback -0.659274 0.536599 2.31149
thorax -13.3909 -0.395484 -3.65753
lowerneck -18.3141 0.535923 3.50955
upperneck 20.1837 0.163165 -1.86468
head 9.39742 0.133522 -1.20564
rclavicle -2.38542e-015 -1.27222e-014
rhumerus -53.9883 51.2001 -37.1799
rradius 119.275
rwrist -25.594
rhand 35.7242 -50.0138
rfingers 7.12502
rthumb 58.7663 -65.0272
lclavicle -2.38542e-015 -1.27222e-014
lhumerus -75.63 -38.5317 85.6797
lradius 97.6446
lwrist 14.0281
lhand 33.8694 -10.0015
lfingers 7.12502
lthumb 57.148 6.46052
rfemur -33.4079 -9.54132 17.5375
rtibia 50.4523
rfoot -26.4695 5.48683
rtoes -20.7449
lfemur -38.4059 15.3621 -12.7089
ltibia 55.4971
lfoot -25.3886 -5.58398
ltoes -56.6971
205
root -0.871649 17.4725 5.73636 14.0028 -2.27445 -2.29141
lowerback 22.6659 -1.87907 10.3554
upperback -0.640234 0.583703 2.063
thorax -13.4941 -0.365239 -3.75415
lowerneck -18.5808 0.404631 3.16389
upperneck 20.7744 -0.0538846 -1.33599
head 9.64831 0.0705812 -0.998578
rclavicle 5.1684e-015 1.59028e-014
rhumerus -49.7748 51.1982 -31.7908
rradius 119.099
rwrist -26.1258
rhand 37.0438 -50.5624
rfingers 7.12502
rthumb 59.9027 -64.4444
lclavicle 5.1684e-015 1.59028e-014
lhumerus -75.2233 -40.359 83.039
lradius 99.6343
lwrist 15.4159
lhand 34.8285 -11.3547
lfingers 7.12502
lthumb 57.9877 4.37771
rfemur -32.7173 -9.35653 17.5782
rtibia 50.0034
rfoot -26.2224 5.56159
rtoes -20.6935
lfemur -37.6925 15.4637 -12.4418
ltibia 55.3077
lfoot -25.4404 -5.43127
ltoes -56.7677
